HIERARCHY
ROOT Hip
{
	OFFSET 0 1.131 0.0052
	CHANNELS 6 Xposition Yposition Zposition Xrotation Yrotation Zrotation
	JOINT Abdomen
	{
		OFFSET 0 -0.047353 -0.05
		CHANNELS 3 Xrotation Zrotation Yrotation
		JOINT Chest
		{
			OFFSET 0 0.132153 0.007439
			CHANNELS 3 Xrotation Zrotation Yrotation
			JOINT Neck
			{
				OFFSET 0 0.3078 0.006161
				CHANNELS 3 Xrotation Zrotation Yrotation
				JOINT Head_comp
				{
					OFFSET 0 0.0884 0.013
					CHANNELS 3 Xrotation Yrotation Zrotation
					End Site
					{
						OFFSET -0 0.156 0.0624
					}
				}
			}
			JOINT Left_Collar
			{
				OFFSET 0.02282 0.250342 0.017193
				CHANNELS 2 Yrotation Zrotation
				JOINT Left_Shoulder
				{
					OFFSET 0.15421 0 0
					CHANNELS 3 Xrotation Yrotation Zrotation
					JOINT Left_Forearm
					{
						OFFSET 0.265212 0 0
						CHANNELS 2 Yrotation Xrotation
						JOINT Left_Hand
						{
							OFFSET 0.27571 0 0
							CHANNELS 2 Zrotation Yrotation
							JOINT L1ProxPhalanx
							{
								OFFSET 0.014142 0.001733 0.014142
								CHANNELS 3 Yrotation Zrotation Xrotation
								JOINT L1MidPhalanx
								{
									OFFSET 0.04 0 0
									CHANNELS 1 Zrotation
									JOINT L1DistPhalanx
									{
										OFFSET 0.035 0 0
										CHANNELS 1 Zrotation
										End Site
										{
											OFFSET 0.029 -0 -0
										}
									}
								}
							}
							JOINT L2ProxPhalanx
							{
								OFFSET 0.0821037 0.001578 0.0219996
								CHANNELS 2 Yrotation Zrotation
								JOINT L2MidPhalanx
								{
									OFFSET 0.04 0 0
									CHANNELS 1 Zrotation
									JOINT L2DistPhalanx
									{
										OFFSET 0.028 0 0
										CHANNELS 1 Zrotation
										End Site
										{
											OFFSET 0.02 -0 -0
										}
									}
								}
							}
							JOINT L3ProxPhalanx
							{
								OFFSET 0.083 0 0
								CHANNELS 2 Yrotation Zrotation
								JOINT L3MidPhalanx
								{
									OFFSET 0.053 0 0
									CHANNELS 1 Zrotation
									JOINT L3DistPhalanx
									{
										OFFSET 0.03 0 0
										CHANNELS 1 Zrotation
										End Site
										{
											OFFSET 0.023 -0 -0
										}
									}
								}
							}
							JOINT L4ProxPhalanx
							{
								OFFSET 0.077274 -0.000761 -0.0207055
								CHANNELS 2 Yrotation Zrotation
								JOINT L4MidPhalanx
								{
									OFFSET 0.05 0 0
									CHANNELS 1 Zrotation
									JOINT L4DistPhalanx
									{
										OFFSET 0.03 0 0
										CHANNELS 1 Zrotation
										End Site
										{
											OFFSET 0.023 -0 -0
										}
									}
								}
							}
							JOINT L5ProxPhalanx
							{
								OFFSET 0.0675499 -0.001644 -0.039
								CHANNELS 2 Yrotation Zrotation
								JOINT L5MidPhalanx
								{
									OFFSET 0.04 0 0
									CHANNELS 1 Zrotation
									JOINT L5DistPhalanx
									{
										OFFSET 0.021 0 0
										CHANNELS 1 Zrotation
										End Site
										{
											OFFSET 0.022 -0 -0
										}
									}
								}
							}
						}
					}
				}
			}
			JOINT Right_Collar
			{
				OFFSET -0.02282 0.250342 0.017193
				CHANNELS 2 Yrotation Zrotation
				JOINT Right_Shoulder
				{
					OFFSET -0.15421 0 0
					CHANNELS 3 Xrotation Yrotation Zrotation
					JOINT Right_Forearm
					{
						OFFSET -0.265212 0 0
						CHANNELS 2 Yrotation Xrotation
						JOINT Right_Hand
						{
							OFFSET -0.27571 3e-006 0
							CHANNELS 2 Zrotation Yrotation
							JOINT R1ProxPhalanx
							{
								OFFSET -0.014142 0.001733 0.014142
								CHANNELS 3 Yrotation Zrotation Xrotation
								JOINT R1MidPhalanx
								{
									OFFSET -0.04 0 0
									CHANNELS 1 Zrotation
									JOINT R1DistPhalanx
									{
										OFFSET -0.035 0 0
										CHANNELS 1 Zrotation
										End Site
										{
											OFFSET -0.029 -0 -0
										}
									}
								}
							}
							JOINT R2ProxPhalanx
							{
								OFFSET -0.0821037 0.001578 0.0219996
								CHANNELS 2 Yrotation Zrotation
								JOINT R2MidPhalanx
								{
									OFFSET -0.04 0 0
									CHANNELS 1 Zrotation
									JOINT R2DistPhalanx
									{
										OFFSET -0.028 0 0
										CHANNELS 1 Zrotation
										End Site
										{
											OFFSET -0.02 -0 -0
										}
									}
								}
							}
							JOINT R3ProxPhalanx
							{
								OFFSET -0.083 0 0
								CHANNELS 2 Yrotation Zrotation
								JOINT R3MidPhalanx
								{
									OFFSET -0.053 0 0
									CHANNELS 1 Zrotation
									JOINT R3DistPhalanx
									{
										OFFSET -0.03 0 0
										CHANNELS 1 Zrotation
										End Site
										{
											OFFSET -0.023 -0 -0
										}
									}
								}
							}
							JOINT R4ProxPhalanx
							{
								OFFSET -0.077274 -0.000761 -0.0207055
								CHANNELS 2 Yrotation Zrotation
								JOINT R4MidPhalanx
								{
									OFFSET -0.05 0 0
									CHANNELS 1 Zrotation
									JOINT R4DistPhalanx
									{
										OFFSET -0.03 0 0
										CHANNELS 1 Zrotation
										End Site
										{
											OFFSET -0.023 -0 -0
										}
									}
								}
							}
							JOINT R5ProxPhalanx
							{
								OFFSET -0.0675499 -0.001644 -0.039
								CHANNELS 2 Yrotation Zrotation
								JOINT R5MidPhalanx
								{
									OFFSET -0.04 0 0
									CHANNELS 1 Zrotation
									JOINT R5DistPhalanx
									{
										OFFSET -0.021 0 0
										CHANNELS 1 Zrotation
										End Site
										{
											OFFSET -0.022 -0 -0
										}
									}
								}
							}
						}
					}
				}
			}
		}
	}
	JOINT Left_Thigh
	{
		OFFSET 0.1118 -0.1612 -0.0442
		CHANNELS 3 Xrotation Zrotation Yrotation
		JOINT Left_Shin
		{
			OFFSET 0 -0.477856 0
			CHANNELS 1 Xrotation
			JOINT Left_Foot
			{
				OFFSET 0 -0.431952 0
				CHANNELS 2 Xrotation Zrotation
				JOINT Left_Toe
				{
					OFFSET 0 -0.0442 0.119
					CHANNELS 1 Xrotation
					End Site
					{
						OFFSET -0 -0 0.07
					}
				}
			}
		}
	}
	JOINT Right_Thigh
	{
		OFFSET -0.1118 -0.1612 -0.0442
		CHANNELS 3 Xrotation Zrotation Yrotation
		JOINT Right_Shin
		{
			OFFSET 0 -0.477856 0
			CHANNELS 1 Xrotation
			JOINT Right_Foot
			{
				OFFSET 0 -0.431952 0
				CHANNELS 2 Xrotation Zrotation
				JOINT Right_Toe
				{
					OFFSET 0 -0.0442 0.119
					CHANNELS 1 Xrotation
					End Site
					{
						OFFSET -0 -0 0.07
					}
				}
			}
		}
	}
}
MOTION
Frames: 8
Frame Time: 0.009975
-0.10265 -0.0601626 0.0540555 4.38413e-013 8.45578e-008 -5.10888e-006 0 0 0 0 0 0 0 0 0 0 0 0 0 0 -0 0 -0 0 0 0 0 -24.8762 -66.6066 134.685 -10.5837 -3.45241 10.4835 -27.0105 -17.3842 -15.8812 5.47066 -3.95816 -4.96267 -2.28994 -5.09222 2.13988 -20.4239 10.6399 -0.0373568 5.75891 -74.3327 52.3109 0 0 -0 0 -0 0 0 0 0 37.9386 28.008 73.698 26.2405 28.4472 13.118 18.2167 29.0248 19.6359 0 22.4358 32.6146 28.1246 -8.63175 30.7051 32.2053 23.7634 -7.83088 26.7354 35.1526 30.0193 0.936818 -0.57625 -0.00942278 0.0240216 -0.960793 0.576332 0 0.948224 -0.576248 -0.00953748 0 -0.948176 0.576332 0 
-0.10265 -0.0601626 0.0540555 4.38413e-013 8.45578e-008 -5.10888e-006 0 0 0 0 0 0 0 0 0 0 0 0 0 0 -0 0 -0 0 0 0 0 -24.8762 -66.6066 134.685 -10.5837 -3.45241 10.4835 -27.0105 -17.3842 -15.8812 5.47066 -3.95816 -4.96267 -2.28994 -5.09222 2.13988 -20.4239 10.6399 -0.0373568 5.75891 -74.3327 52.3109 0 0 -0 0 -0 0 0 0 0 37.9386 28.008 73.698 26.2405 28.4472 13.118 18.2167 29.0248 19.6359 0 22.4358 32.6146 28.1246 -8.63175 30.7051 32.2053 23.7634 -7.83088 26.7354 35.1526 30.0193 0.936818 -0.57625 -0.00942278 0.0240216 -0.960793 0.576332 0 0.948224 -0.576248 -0.00953748 0 -0.948176 0.576332 0 
-0.101405 -0.0600937 0.0477247 -6.57161e-013 4.90026e-008 -5.08388e-006 0 -0 0 0 -0 0 0 -0 0 -0.710431 0.291104 -9.06921e-006 4.73701 -25.39 3.86899 -21.2806 -35.7779 -66.4815 2.773 45.8592 -0.7245 -25.3508 -66.4737 134.101 -10.7058 -3.53515 10.4261 -27.0254 -17.4972 -15.8768 5.44385 -4.09827 -5.13786 -2.36849 -5.06023 1.9694 -20.5218 10.4967 -0.0110612 5.61026 -74.1311 51.9494 -4.73701 25.39 3.86899 21.2806 35.7779 66.4815 2.773 -45.8592 0.7245 25.3508 66.4737 134.101 10.7058 3.53515 -10.4261 27.0254 17.4972 15.8768 -5.44385 4.09827 5.13786 2.36849 5.06023 -1.9694 20.5218 -10.4967 0.0110612 -5.61026 74.1311 -51.9494 0.538137 -0.654642 -0.00616411 0.0239015 -0.562004 0.654676 0 0.549486 -0.65464 -0.0062941 0 -0.54945 0.654676 0 
-0.10135 -0.0600911 0.047436 -6.60453e-013 4.92489e-008 -5.10942e-006 0 -0 0 0 -0 0 0 -0 0 -0.712667 0.29108 -1.30785e-010 4.76042 -25.5175 4.52931 -20.6183 -32.9661 -67.9375 2.78532 46.0896 -0.727943 -24.8762 -66.6066 134.685 -10.5837 -3.45241 10.4835 -27.0105 -17.3842 -15.8812 5.47066 -3.95816 -4.96267 -2.28994 -5.09222 2.13988 -20.4239 10.6399 -0.0373568 5.75891 -74.3327 52.3109 -4.76042 25.5175 4.52931 20.6183 32.9661 67.9375 2.78532 -46.0896 0.727943 24.8762 66.6066 134.685 10.5837 3.45241 -10.4835 27.0105 17.3842 15.8812 -5.47066 3.95816 4.96267 2.28994 5.09222 -2.13988 20.4239 -10.6399 0.0373568 -5.75891 74.3327 -52.3109 0.519898 -0.658113 -0.00597175 0.0240216 -0.543885 0.658145 0 0.531303 -0.658111 -0.00610275 0 -0.531268 0.658145 0 
-0.10135 -0.0600914 0.0474585 -1.39907e-012 4.73671e-008 -5.10944e-006 0 -0 0 0 -0 0 0 -0 0 -0.712662 0.291068 5.35794e-017 4.76042 -25.5175 4.53361 -20.6125 -32.9471 -67.946 2.78532 46.0896 -0.727943 -24.8762 -66.6066 134.685 -10.5837 -3.45241 10.4835 -27.0105 -17.3842 -15.8812 5.47066 -3.95816 -4.96267 -2.28994 -5.09222 2.13988 -20.4239 10.6399 -0.0373568 5.75891 -74.3327 52.3109 -4.76042 25.5175 4.53361 20.6125 32.9471 67.946 2.78532 -46.0896 0.727943 24.8762 66.6066 134.685 10.5837 3.45241 -10.4835 27.0105 17.3842 15.8812 -5.47066 3.95816 4.96267 2.28994 5.09222 -2.13988 20.4239 -10.6399 0.0373568 -5.75891 74.3327 -52.3109 0.521318 -0.658116 -0.00598809 0.0240216 -0.545305 0.658148 0 0.532722 -0.658115 -0.00611907 2.80333e-006 -0.532689 0.658148 0 
-0.10135 -0.0600914 0.047459 -7.61215e-013 4.75092e-008 -5.10944e-006 0 -0 0 0 -0 0 0 -0 0 -0.712662 0.291068 -3.88256e-019 4.76042 -25.5175 4.53361 -20.6125 -32.9471 -67.946 2.78532 46.0896 -0.727943 -24.8762 -66.6066 134.685 -10.5837 -3.45241 10.4835 -27.0105 -17.3842 -15.8812 5.47066 -3.95816 -4.96267 -2.28994 -5.09222 2.13988 -20.4239 10.6399 -0.0373568 5.75891 -74.3327 52.3109 -4.76042 25.5175 4.53361 20.6125 32.9471 67.946 2.78532 -46.0896 0.727943 24.8762 66.6066 134.685 10.5837 3.45241 -10.4835 27.0105 17.3842 15.8812 -5.47066 3.95816 4.96267 2.28994 5.09222 -2.13988 20.4239 -10.6399 0.0373568 -5.75891 74.3327 -52.3109 0.521347 -0.658116 -0.00598842 0.0240216 -0.545334 0.658148 0 0.532752 -0.658115 -0.00611942 3.53956e-008 -0.532717 0.658148 0 
-0.10135 -0.0600914 0.047459 -2.62414e-013 4.75104e-008 -5.10944e-006 0 -0 0 0 -0 0 0 -0 0 -0.712662 0.291069 -3.88256e-019 4.76042 -25.5175 4.53361 -20.6125 -32.9471 -67.946 2.78532 46.0896 -0.727943 -24.8762 -66.6066 134.685 -10.5837 -3.45241 10.4835 -27.0105 -17.3842 -15.8812 5.47066 -3.95816 -4.96267 -2.28994 -5.09222 2.13988 -20.4239 10.6399 -0.0373568 5.75891 -74.3327 52.3109 -4.76042 25.5175 4.53361 20.6125 32.9471 67.946 2.78532 -46.0896 0.727943 24.8762 66.6066 134.685 10.5837 3.45241 -10.4835 27.0105 17.3842 15.8812 -5.47066 3.95816 4.96267 2.28994 5.09222 -2.13988 20.4239 -10.6399 0.0373568 -5.75891 74.3327 -52.3109 0.521347 -0.658116 -0.00598842 0.0240216 -0.545334 0.658148 0 0.532752 -0.658115 -0.00611943 0 -0.532717 0.658148 0 
-0.10135 -0.0600914 0.047459 -3.07041e-013 4.75104e-008 -5.10944e-006 0 -0 0 0 -0 0 0 -0 0 -0.712662 0.291069 3.88256e-019 4.76042 -25.5175 4.53361 -20.6125 -32.9471 -67.946 2.78532 46.0896 -0.727943 -24.8762 -66.6066 134.685 -10.5837 -3.45241 10.4835 -27.0105 -17.3842 -15.8812 5.47066 -3.95816 -4.96267 -2.28994 -5.09222 2.13988 -20.4239 10.6399 -0.0373568 5.75891 -74.3327 52.3109 -4.76042 25.5175 4.53361 20.6125 32.9471 67.946 2.78532 -46.0896 0.727943 24.8762 66.6066 134.685 10.5837 3.45241 -10.4835 27.0105 17.3842 15.8812 -5.47066 3.95816 4.96267 2.28994 5.09222 -2.13988 20.4239 -10.6399 0.0373568 -5.75891 74.3327 -52.3109 0.521347 -0.658116 -0.00598842 0.0240216 -0.545334 0.658148 0 0.532752 -0.658115 -0.00611943 0 -0.532717 0.658148 0 
